<svg id="svg" version="1.1" xmlns="http://www.w3.org/2000/svg" xmlns:xlink="http://www.w3.org/1999/xlink" width="400" height="400" viewBox="0, 0, 400,400"><g id="svgg"><path id="path0" d="M188.600 40.000 C 188.463 40.221,186.658 40.400,184.564 40.400 C 181.565 40.400,180.727 40.525,180.545 41.000 C 180.376 41.439,179.684 41.600,177.957 41.600 C 176.652 41.600,175.600 41.779,175.600 42.000 C 175.600 42.220,174.700 42.400,173.600 42.400 C 172.089 42.400,171.600 42.547,171.600 43.000 C 171.600 43.453,171.111 43.600,169.600 43.600 C 168.500 43.600,167.600 43.780,167.600 44.000 C 167.600 44.220,166.964 44.400,166.187 44.400 C 165.301 44.400,164.689 44.623,164.545 45.000 C 164.418 45.330,163.894 45.600,163.381 45.600 C 162.867 45.600,162.336 45.780,162.200 46.000 C 162.064 46.220,161.423 46.400,160.776 46.400 C 159.997 46.400,159.600 46.603,159.600 47.000 C 159.600 47.373,159.222 47.600,158.600 47.600 C 158.050 47.600,157.600 47.780,157.600 48.000 C 157.600 48.220,157.150 48.400,156.600 48.400 C 155.978 48.400,155.600 48.627,155.600 49.000 C 155.600 49.348,155.237 49.600,154.734 49.600 C 153.682 49.600,150.800 50.828,150.800 51.277 C 150.800 51.455,150.530 51.600,150.200 51.600 C 149.870 51.600,149.600 51.780,149.600 52.000 C 149.600 52.220,149.150 52.400,148.600 52.400 C 147.978 52.400,147.600 52.627,147.600 53.000 C 147.600 53.330,147.366 53.600,147.080 53.600 C 146.161 53.600,144.406 54.584,144.403 55.100 C 144.401 55.375,144.027 55.600,143.571 55.600 C 142.686 55.600,141.600 56.466,141.600 57.171 C 141.600 57.407,141.272 57.600,140.872 57.600 C 139.953 57.600,137.436 59.811,137.760 60.335 C 137.896 60.556,137.684 60.643,137.273 60.535 C 136.872 60.430,136.310 60.627,136.023 60.972 C 135.737 61.317,135.331 61.600,135.122 61.600 C 134.608 61.600,133.600 62.641,133.600 63.171 C 133.600 63.407,133.407 63.600,133.171 63.600 C 132.618 63.600,131.600 64.618,131.600 65.171 C 131.600 65.407,131.407 65.600,131.171 65.600 C 130.618 65.600,129.600 66.618,129.600 67.171 C 129.600 67.407,129.407 67.600,129.171 67.600 C 128.773 67.600,128.442 67.838,127.114 69.081 C 126.180 69.954,125.600 70.760,125.600 71.183 C 125.600 71.412,125.407 71.600,125.171 71.600 C 124.506 71.600,123.520 72.747,123.798 73.197 C 123.935 73.419,123.754 73.600,123.395 73.600 C 122.657 73.600,121.600 74.525,121.600 75.171 C 121.600 75.407,121.407 75.600,121.171 75.600 C 120.638 75.600,119.600 76.610,119.600 77.129 C 119.600 77.341,119.330 77.618,119.000 77.745 C 118.670 77.871,118.400 78.263,118.400 78.614 C 118.400 78.966,117.770 79.848,117.000 80.574 C 116.230 81.300,115.600 82.278,115.600 82.747 C 115.600 83.216,115.407 83.600,115.171 83.600 C 114.494 83.600,113.035 85.432,112.542 86.900 C 112.412 87.285,112.148 87.600,111.953 87.600 C 111.759 87.600,111.600 88.050,111.600 88.600 C 111.600 89.159,111.368 89.600,111.075 89.600 C 110.786 89.600,110.305 90.223,110.007 90.983 C 109.708 91.744,109.224 92.459,108.932 92.571 C 108.639 92.683,108.400 93.141,108.400 93.587 C 108.400 94.034,108.220 94.400,108.000 94.400 C 107.780 94.400,107.600 94.831,107.600 95.357 C 107.600 95.884,107.330 96.418,107.000 96.545 C 106.670 96.671,106.400 97.231,106.400 97.787 C 106.400 98.344,106.220 98.800,106.000 98.800 C 105.780 98.800,105.600 99.173,105.600 99.629 C 105.600 100.084,105.330 100.727,105.000 101.057 C 104.670 101.387,104.400 102.094,104.400 102.629 C 104.400 103.163,104.220 103.600,104.000 103.600 C 103.780 103.600,103.600 104.211,103.600 104.957 C 103.600 105.795,103.370 106.403,103.000 106.545 C 102.623 106.689,102.400 107.301,102.400 108.187 C 102.400 108.964,102.220 109.600,102.000 109.600 C 101.780 109.600,101.600 110.211,101.600 110.957 C 101.600 111.795,101.370 112.403,101.000 112.545 C 100.590 112.702,100.400 113.343,100.400 114.564 C 100.400 115.548,100.220 116.464,100.000 116.600 C 99.780 116.736,99.600 117.897,99.600 119.181 C 99.600 120.886,99.438 121.576,99.000 121.745 C 98.536 121.923,98.400 122.698,98.400 125.164 C 98.400 126.918,98.218 128.466,97.995 128.603 C 97.460 128.933,97.483 153.080,98.017 153.411 C 98.228 153.541,98.400 155.082,98.400 156.836 C 98.400 159.302,98.536 160.077,99.000 160.255 C 99.439 160.424,99.600 161.116,99.600 162.843 C 99.600 164.148,99.779 165.200,100.000 165.200 C 100.220 165.200,100.400 165.988,100.400 166.951 C 100.400 168.020,100.634 168.896,101.000 169.200 C 101.330 169.474,101.600 170.306,101.600 171.049 C 101.600 171.792,101.780 172.400,102.000 172.400 C 102.220 172.400,102.400 173.036,102.400 173.813 C 102.400 174.699,102.623 175.311,103.000 175.455 C 103.330 175.582,103.600 176.116,103.600 176.643 C 103.600 177.169,103.780 177.600,104.000 177.600 C 104.220 177.600,104.400 178.146,104.400 178.813 C 104.400 179.521,104.649 180.121,105.000 180.255 C 105.330 180.382,105.600 180.916,105.600 181.443 C 105.600 181.969,105.780 182.400,106.000 182.400 C 106.220 182.400,106.400 182.850,106.400 183.400 C 106.400 184.022,106.627 184.400,107.000 184.400 C 107.373 184.400,107.600 184.778,107.600 185.400 C 107.600 185.950,107.780 186.400,108.000 186.400 C 108.220 186.400,108.400 186.850,108.400 187.400 C 108.400 188.022,108.627 188.400,109.000 188.400 C 109.373 188.400,109.600 188.778,109.600 189.400 C 109.600 189.950,109.780 190.400,110.000 190.400 C 110.220 190.400,110.400 190.670,110.400 191.000 C 110.400 191.330,110.670 191.600,111.000 191.600 C 111.338 191.600,111.600 191.957,111.600 192.417 C 111.600 192.867,112.050 193.720,112.600 194.313 C 113.150 194.907,113.600 195.619,113.600 195.896 C 113.600 196.173,113.780 196.400,114.000 196.400 C 114.220 196.400,114.400 196.670,114.400 197.000 C 114.400 197.330,114.670 197.600,115.000 197.600 C 115.330 197.600,115.606 197.915,115.613 198.300 C 115.628 199.165,116.529 200.400,117.144 200.400 C 117.395 200.400,117.600 200.593,117.600 200.829 C 117.600 201.382,118.618 202.400,119.171 202.400 C 119.407 202.400,119.600 202.784,119.600 203.253 C 119.600 203.722,120.230 204.700,121.000 205.426 C 121.770 206.152,122.400 206.938,122.400 207.173 C 122.400 207.408,122.593 207.600,122.829 207.600 C 123.382 207.600,124.400 208.618,124.400 209.171 C 124.400 209.407,124.593 209.600,124.829 209.600 C 125.382 209.600,126.400 210.618,126.400 211.171 C 126.400 211.407,126.593 211.600,126.829 211.600 C 127.382 211.600,128.400 212.618,128.400 213.171 C 128.400 213.407,128.569 213.600,128.776 213.600 C 128.984 213.600,130.092 214.500,131.239 215.600 C 132.386 216.700,133.567 217.600,133.862 217.600 C 134.158 217.600,134.400 217.780,134.400 218.000 C 134.400 218.220,134.670 218.400,135.000 218.400 C 135.330 218.400,135.600 218.593,135.600 218.829 C 135.600 219.382,136.618 220.400,137.171 220.400 C 137.407 220.400,137.600 220.670,137.600 221.000 C 137.600 221.340,137.959 221.600,138.429 221.600 C 139.314 221.600,140.400 222.466,140.400 223.171 C 140.400 223.407,140.670 223.600,141.000 223.600 C 141.330 223.600,141.600 223.780,141.600 224.000 C 141.600 224.220,142.050 224.400,142.600 224.400 C 143.150 224.400,143.600 224.593,143.600 224.829 C 143.600 225.506,145.432 226.965,146.900 227.458 C 147.285 227.588,147.600 227.852,147.600 228.047 C 147.600 228.241,148.050 228.400,148.600 228.400 C 149.150 228.400,149.600 228.593,149.600 228.829 C 149.600 229.534,150.686 230.400,151.571 230.400 C 152.041 230.400,152.400 230.660,152.400 231.000 C 152.400 231.330,152.670 231.600,153.000 231.600 C 153.330 231.600,153.600 231.780,153.600 232.000 C 153.600 232.220,154.050 232.400,154.600 232.400 C 155.222 232.400,155.600 232.627,155.600 233.000 C 155.600 233.373,155.978 233.600,156.600 233.600 C 157.150 233.600,157.600 233.780,157.600 234.000 C 157.600 234.220,157.870 234.400,158.200 234.400 C 158.530 234.400,158.801 234.535,158.803 234.700 C 158.806 235.090,161.108 236.400,161.790 236.400 C 162.078 236.400,162.418 236.670,162.545 237.000 C 162.671 237.330,163.141 237.600,163.587 237.600 C 164.034 237.600,164.400 237.780,164.400 238.000 C 164.400 238.220,164.850 238.400,165.400 238.400 C 165.950 238.400,166.401 238.625,166.403 238.900 C 166.406 239.416,168.161 240.400,169.080 240.400 C 169.366 240.400,169.600 240.690,169.600 241.045 C 169.600 241.530,169.889 241.648,170.759 241.521 C 171.597 241.398,171.861 241.496,171.716 241.875 C 171.599 242.179,171.795 242.400,172.181 242.400 C 172.547 242.400,172.755 242.250,172.641 242.067 C 172.528 241.883,172.687 241.733,172.995 241.733 C 173.303 241.733,173.544 241.838,173.530 241.967 C 173.422 242.972,173.703 243.600,174.262 243.600 C 174.626 243.600,175.514 244.050,176.236 244.600 C 176.957 245.150,177.739 245.600,177.973 245.600 C 178.208 245.600,178.400 245.780,178.400 246.000 C 178.400 246.220,178.831 246.400,179.357 246.400 C 179.884 246.400,180.418 246.670,180.545 247.000 C 180.671 247.330,181.141 247.600,181.587 247.600 C 182.034 247.600,182.400 247.737,182.400 247.905 C 182.400 248.211,183.585 248.933,184.900 249.429 C 185.285 249.574,185.600 249.852,185.600 250.047 C 185.600 250.241,186.050 250.400,186.600 250.400 C 187.222 250.400,187.600 250.627,187.600 251.000 C 187.600 251.373,187.978 251.600,188.600 251.600 C 189.150 251.600,189.600 251.780,189.600 252.000 C 189.600 252.220,190.050 252.400,190.600 252.400 C 191.222 252.400,191.600 252.627,191.600 253.000 C 191.600 253.330,191.870 253.600,192.200 253.600 C 192.530 253.600,192.800 253.780,192.800 254.000 C 192.800 254.220,193.141 254.400,193.557 254.400 C 193.974 254.400,194.418 254.670,194.545 255.000 C 194.804 255.675,196.221 255.813,196.600 255.200 C 196.736 254.980,197.062 254.805,197.324 254.812 C 197.586 254.819,197.485 255.008,197.100 255.232 C 196.091 255.820,196.240 256.400,197.400 256.400 C 198.200 256.400,198.400 256.600,198.400 257.400 C 198.400 257.996,198.629 258.400,198.967 258.400 C 200.220 258.400,199.871 262.208,198.471 263.810 C 197.960 264.394,197.627 265.092,197.730 265.361 C 197.859 265.698,197.557 265.796,196.759 265.679 C 196.072 265.579,195.600 265.691,195.600 265.955 C 195.600 266.280,172.882 266.400,111.000 266.400 L 26.400 266.400 26.400 317.399 L 26.400 368.397 132.061 368.397 C 215.823 368.397,237.849 368.294,238.338 367.898 C 238.747 367.568,238.860 367.556,238.675 367.865 C 238.475 368.199,239.131 368.336,240.998 368.350 C 242.782 368.364,243.600 368.218,243.599 367.885 C 243.598 367.533,244.529 367.435,246.999 367.529 C 249.881 367.639,250.400 367.563,250.400 367.029 C 250.400 366.404,251.277 366.230,253.660 366.384 C 254.244 366.421,254.839 366.260,254.984 366.026 C 255.129 365.792,256.025 365.600,256.975 365.600 C 258.022 365.600,258.898 365.364,259.200 365.000 C 259.474 364.670,260.306 364.400,261.049 364.400 C 261.792 364.400,262.400 364.220,262.400 364.000 C 262.400 363.780,262.843 363.600,263.384 363.600 C 263.926 363.600,264.713 363.231,265.133 362.780 C 265.685 362.187,266.178 362.029,266.905 362.212 C 267.472 362.354,268.030 362.276,268.180 362.032 C 268.327 361.795,268.802 361.600,269.236 361.600 C 269.670 361.600,270.129 361.330,270.255 361.000 C 270.382 360.670,270.916 360.400,271.443 360.400 C 271.969 360.400,272.400 360.220,272.400 360.000 C 272.400 359.780,272.850 359.600,273.400 359.600 C 274.022 359.600,274.400 359.373,274.400 359.000 C 274.400 358.627,274.778 358.400,275.400 358.400 C 275.950 358.400,276.400 358.220,276.400 358.000 C 276.400 357.780,276.850 357.600,277.400 357.600 C 278.022 357.600,278.400 357.373,278.400 357.000 C 278.400 356.670,278.634 356.400,278.920 356.400 C 279.839 356.400,281.594 355.416,281.597 354.900 C 281.599 354.625,282.050 354.400,282.600 354.400 C 283.150 354.400,283.600 354.220,283.600 354.000 C 283.600 353.780,283.827 353.600,284.104 353.600 C 284.381 353.600,285.093 353.150,285.687 352.600 C 286.280 352.050,286.953 351.600,287.183 351.600 C 287.412 351.600,287.600 351.330,287.600 351.000 C 287.600 350.670,287.915 350.394,288.300 350.387 C 289.165 350.372,290.400 349.471,290.400 348.856 C 290.400 348.605,290.670 348.400,291.000 348.400 C 291.330 348.400,291.600 348.220,291.600 348.000 C 291.600 347.780,291.890 347.600,292.244 347.600 C 293.043 347.600,296.526 344.127,296.221 343.634 C 296.099 343.436,296.359 343.369,296.799 343.484 C 297.268 343.607,297.600 343.496,297.600 343.218 C 297.600 342.626,298.597 341.600,299.171 341.600 C 299.407 341.600,299.600 341.407,299.600 341.171 C 299.600 340.618,300.618 339.600,301.171 339.600 C 301.407 339.600,301.600 339.407,301.600 339.171 C 301.600 338.618,302.618 337.600,303.171 337.600 C 303.407 337.600,303.600 337.407,303.600 337.171 C 303.600 336.618,304.618 335.600,305.171 335.600 C 305.407 335.600,305.600 335.431,305.600 335.224 C 305.600 335.016,306.500 333.908,307.600 332.761 C 308.700 331.614,309.600 330.433,309.600 330.138 C 309.600 329.842,309.780 329.600,310.000 329.600 C 310.220 329.600,310.400 329.330,310.400 329.000 C 310.400 328.670,310.605 328.400,310.856 328.400 C 311.471 328.400,312.372 327.165,312.387 326.300 C 312.394 325.915,312.670 325.600,313.000 325.600 C 313.330 325.600,313.600 325.330,313.600 325.000 C 313.600 324.670,313.780 324.400,314.000 324.400 C 314.220 324.400,314.400 324.065,314.400 323.656 C 314.400 323.247,314.850 322.574,315.400 322.161 C 315.951 321.747,316.400 321.004,316.400 320.505 C 316.400 320.007,316.625 319.599,316.900 319.597 C 317.416 319.594,318.400 317.839,318.400 316.920 C 318.400 316.634,318.690 316.400,319.045 316.400 C 319.530 316.400,319.648 316.111,319.521 315.241 C 319.389 314.345,319.484 314.134,319.940 314.309 C 320.388 314.481,320.472 314.317,320.290 313.623 C 320.111 312.940,320.245 312.661,320.826 312.509 C 321.318 312.380,321.600 311.960,321.600 311.353 C 321.600 310.829,321.780 310.400,322.000 310.400 C 322.220 310.400,322.400 309.969,322.400 309.443 C 322.400 308.916,322.670 308.382,323.000 308.255 C 323.351 308.121,323.600 307.521,323.600 306.813 C 323.600 306.146,323.780 305.600,324.000 305.600 C 324.220 305.600,324.400 305.137,324.400 304.571 C 324.400 304.006,324.670 303.273,325.000 302.943 C 325.330 302.613,325.600 301.906,325.600 301.371 C 325.600 300.837,325.780 300.400,326.000 300.400 C 326.220 300.400,326.400 300.040,326.400 299.600 C 326.400 299.160,326.175 298.797,325.900 298.794 C 325.538 298.789,325.552 298.691,325.951 298.439 C 326.254 298.247,326.391 297.910,326.256 297.690 C 326.120 297.470,326.322 297.315,326.704 297.345 C 327.270 297.390,327.423 297.008,327.521 295.300 C 327.587 294.145,327.812 293.200,328.021 293.200 C 328.229 293.200,328.400 292.322,328.400 291.249 C 328.400 290.003,328.617 289.118,329.000 288.800 C 329.434 288.440,329.600 287.486,329.600 285.351 C 329.600 283.728,329.766 282.400,329.970 282.400 C 330.177 282.400,330.356 279.848,330.376 276.576 C 330.406 271.952,330.545 270.550,331.055 269.773 C 331.802 268.631,331.660 263.953,330.869 263.690 C 330.538 263.579,330.400 261.773,330.400 257.567 C 330.400 253.856,330.249 251.600,330.000 251.600 C 329.775 251.600,329.600 250.483,329.600 249.049 C 329.600 247.269,329.419 246.347,329.000 246.000 C 328.617 245.682,328.400 244.797,328.400 243.551 C 328.400 242.478,328.220 241.600,328.000 241.600 C 327.780 241.600,327.600 240.902,327.600 240.049 C 327.600 239.158,327.345 238.286,327.000 238.000 C 326.670 237.726,326.400 237.085,326.400 236.575 C 326.400 236.065,326.220 235.536,326.000 235.400 C 325.780 235.264,325.600 234.553,325.600 233.819 C 325.600 233.003,325.367 232.396,325.000 232.255 C 324.649 232.121,324.400 231.521,324.400 230.813 C 324.400 230.146,324.220 229.600,324.000 229.600 C 323.780 229.600,323.600 229.150,323.600 228.600 C 323.600 227.978,323.373 227.600,323.000 227.600 C 322.631 227.600,322.400 227.225,322.400 226.624 C 322.400 226.087,322.220 225.536,322.000 225.400 C 321.780 225.264,321.600 224.803,321.600 224.376 C 321.600 223.949,321.330 223.600,321.000 223.600 C 320.627 223.600,320.400 223.222,320.400 222.600 C 320.400 222.050,320.220 221.600,320.000 221.600 C 319.780 221.600,319.600 221.150,319.600 220.600 C 319.600 219.978,319.373 219.600,319.000 219.600 C 318.627 219.600,318.400 219.222,318.400 218.600 C 318.400 218.050,318.220 217.600,318.000 217.600 C 317.780 217.600,317.600 217.330,317.600 217.000 C 317.600 216.670,317.330 216.400,317.000 216.400 C 316.660 216.400,316.400 216.041,316.400 215.571 C 316.400 215.116,316.175 214.492,315.900 214.185 C 314.713 212.862,314.400 212.409,314.400 212.017 C 314.400 211.788,314.220 211.600,314.000 211.600 C 313.780 211.600,313.600 211.330,313.600 211.000 C 313.600 210.670,313.330 210.400,313.000 210.400 C 312.670 210.400,312.394 210.085,312.387 209.700 C 312.372 208.835,311.471 207.600,310.856 207.600 C 310.605 207.600,310.400 207.373,310.400 207.095 C 310.400 206.817,309.950 206.252,309.400 205.839 C 308.850 205.426,308.400 204.824,308.400 204.502 C 308.400 204.180,307.320 202.860,306.000 201.568 C 304.680 200.277,303.600 199.035,303.600 198.810 C 303.600 198.584,303.407 198.400,303.171 198.400 C 302.936 198.400,302.486 198.143,302.171 197.829 C 301.857 197.514,301.600 197.064,301.600 196.829 C 301.600 196.593,301.416 196.400,301.190 196.400 C 300.965 196.400,299.723 195.320,298.432 194.000 C 297.140 192.680,295.820 191.600,295.498 191.600 C 295.176 191.600,294.574 191.150,294.161 190.600 C 293.748 190.050,293.183 189.600,292.905 189.600 C 292.627 189.600,292.400 189.407,292.400 189.171 C 292.400 188.618,291.382 187.600,290.829 187.600 C 290.593 187.600,290.400 187.423,290.400 187.208 C 290.400 186.992,289.985 186.711,289.477 186.584 C 288.969 186.456,288.224 185.913,287.821 185.376 C 287.418 184.839,286.753 184.400,286.344 184.400 C 285.935 184.400,285.600 184.201,285.600 183.957 C 285.600 183.714,285.330 183.618,285.000 183.745 C 284.620 183.890,284.400 183.739,284.400 183.332 C 284.400 182.557,283.268 181.630,282.300 181.613 C 281.915 181.606,281.600 181.330,281.600 181.000 C 281.600 180.670,281.330 180.400,281.000 180.400 C 280.670 180.400,280.400 180.220,280.400 180.000 C 280.400 179.780,279.950 179.600,279.400 179.600 C 278.778 179.600,278.400 179.373,278.400 179.000 C 278.400 178.670,278.130 178.400,277.800 178.400 C 277.470 178.400,277.200 178.220,277.200 178.000 C 277.200 177.780,276.859 177.600,276.443 177.600 C 276.026 177.600,275.582 177.330,275.455 177.000 C 275.329 176.670,274.859 176.400,274.413 176.400 C 273.966 176.400,273.600 176.220,273.600 176.000 C 273.600 175.780,273.234 175.600,272.787 175.600 C 272.341 175.600,271.871 175.330,271.745 175.000 C 271.618 174.670,271.264 174.400,270.957 174.400 C 270.651 174.400,270.400 174.220,270.400 174.000 C 270.400 173.780,269.950 173.600,269.400 173.600 C 268.778 173.600,268.400 173.373,268.400 173.000 C 268.400 172.627,268.022 172.400,267.400 172.400 C 266.850 172.400,266.400 172.220,266.400 172.000 C 266.400 171.780,266.208 171.600,265.973 171.600 C 265.739 171.600,264.957 171.150,264.236 170.600 C 263.514 170.050,262.646 169.600,262.305 169.600 C 261.964 169.600,261.582 169.330,261.455 169.000 C 261.329 168.670,260.859 168.400,260.413 168.400 C 259.966 168.400,259.600 168.220,259.600 168.000 C 259.600 167.780,259.234 167.600,258.787 167.600 C 258.341 167.600,257.871 167.330,257.745 167.000 C 257.618 166.670,257.264 166.400,256.957 166.400 C 256.651 166.400,256.400 166.220,256.400 166.000 C 256.400 165.780,255.950 165.600,255.400 165.600 C 254.747 165.600,254.400 165.376,254.400 164.955 C 254.400 164.470,254.111 164.352,253.241 164.479 C 252.403 164.602,252.139 164.504,252.284 164.125 C 252.419 163.774,252.139 163.600,251.443 163.600 C 250.783 163.600,250.400 163.380,250.400 163.000 C 250.400 162.670,250.130 162.400,249.800 162.400 C 249.470 162.400,249.200 162.220,249.200 162.000 C 249.200 161.780,248.859 161.600,248.443 161.600 C 248.026 161.600,247.582 161.330,247.455 161.000 C 247.329 160.670,246.859 160.400,246.413 160.400 C 245.966 160.400,245.600 160.199,245.600 159.953 C 245.600 159.693,245.184 159.586,244.600 159.698 C 243.869 159.838,243.599 159.716,243.597 159.245 C 243.594 158.625,241.953 157.600,240.963 157.600 C 240.700 157.600,240.382 157.330,240.255 157.000 C 240.129 156.670,239.659 156.400,239.213 156.400 C 238.766 156.400,238.400 156.200,238.400 155.957 C 238.400 155.683,238.016 155.610,237.400 155.764 C 236.581 155.970,236.400 155.869,236.400 155.208 C 236.400 154.682,236.136 154.400,235.642 154.400 C 235.225 154.400,234.460 153.953,233.942 153.407 C 233.424 152.861,232.685 152.411,232.300 152.407 C 231.915 152.403,231.600 152.220,231.600 152.000 C 231.600 151.780,231.407 151.600,231.171 151.600 C 230.421 151.600,229.600 150.491,229.600 149.478 C 229.600 148.939,229.330 148.274,229.000 148.000 C 228.670 147.726,228.400 147.273,228.400 146.994 C 228.400 146.714,228.670 146.382,229.000 146.255 C 229.330 146.129,229.600 145.737,229.600 145.384 C 229.600 144.655,230.529 143.600,231.171 143.600 C 231.407 143.600,231.600 143.330,231.600 143.000 C 231.600 142.469,239.356 142.400,299.004 142.400 L 366.409 142.400 366.391 91.000 L 366.373 39.600 281.763 39.600 C 214.191 39.600,197.210 39.701,197.435 40.100 C 197.661 40.500,197.610 40.500,197.179 40.100 C 196.520 39.489,188.970 39.401,188.600 40.000 " stroke="none" fill="#3ccc9c" fill-rule="evenodd"></path><path id="path1" d="" stroke="none" fill="#40cc9c" fill-rule="evenodd"></path><path id="path2" d="" stroke="none" fill="#40cc9c" fill-rule="evenodd"></path><path id="path3" d="" stroke="none" fill="#40cc9c" fill-rule="evenodd"></path><path id="path4" d="" stroke="none" fill="#40cc9c" fill-rule="evenodd"></path></g></svg>