<?xml version="1.0" standalone="no"?>
<!DOCTYPE svg PUBLIC "-//W3C//DTD SVG 20010904//EN"
 "http://www.w3.org/TR/2001/REC-SVG-20010904/DTD/svg10.dtd">
<svg version="1.0" xmlns="http://www.w3.org/2000/svg"
 width="283.000000pt" height="285.000000pt" viewBox="0 0 283.000000 285.000000"
 preserveAspectRatio="xMidYMid meet">

<g transform="translate(0.000000,285.000000) scale(0.100000,-0.100000)"
fill="#000000" stroke="none">
<path d="M1425 2484 c-17 -3 -93 -8 -412 -26 -18 -1 -33 -6 -33 -10 0 -4 -7
-8 -16 -8 -11 0 -14 -5 -10 -17 4 -10 233 -505 509 -1100 385 -830 506 -1083
520 -1083 9 0 17 -4 17 -9 0 -15 99 -2 146 18 62 28 149 114 181 180 28 56 28
58 31 290 l3 235 -148 145 c-81 81 -292 284 -468 454 -188 180 -325 319 -332
336 -10 28 -9 30 19 42 20 8 63 10 141 6 62 -4 221 -10 355 -13 l243 -7 287
286 287 287 -650 -1 c-357 -1 -659 -3 -670 -5z"/>
</g>
</svg>
