<svg id="svg" version="1.1" xmlns="http://www.w3.org/2000/svg" xmlns:xlink="http://www.w3.org/1999/xlink" width="400" height="400" viewBox="0, 0, 400,400"><g id="svgg"><path id="path0" d="M108.008 87.359 C 74.362 91.159,51.470 129.109,57.260 171.484 C 59.549 188.231,66.347 201.860,78.514 214.096 C 84.551 220.168,86.279 221.542,102.200 232.928 C 109.003 237.794,112.486 240.523,112.644 241.111 C 113.299 243.557,112.639 246.327,111.155 247.357 C 110.928 247.515,89.692 247.647,63.965 247.650 L 17.188 247.656 17.188 283.398 L 17.188 319.141 75.684 319.140 C 124.534 319.140,134.701 319.048,137.338 318.584 C 171.648 312.545,193.394 267.617,182.414 225.451 C 179.105 212.742,172.845 202.100,162.718 191.967 C 157.485 186.732,155.013 184.788,138.181 172.674 C 127.806 165.207,126.551 163.300,129.762 159.882 L 130.605 158.984 174.482 158.984 L 218.359 158.984 218.359 239.063 L 218.359 319.141 302.344 319.141 L 386.328 319.141 386.328 283.398 L 386.328 247.656 330.469 247.656 L 274.609 247.656 274.609 167.383 L 274.609 87.109 191.895 87.168 C 146.401 87.200,108.652 87.286,108.008 87.359 M273.828 167.707 C 274.020 245.956,274.037 247.338,274.782 247.883 C 275.428 248.356,283.632 248.438,330.358 248.438 L 385.176 248.438 385.563 249.456 C 386.039 250.709,385.897 317.749,385.417 318.229 C 384.759 318.887,219.940 318.628,219.523 317.969 C 219.293 317.605,219.150 287.445,219.147 238.262 C 219.142 177.251,219.033 159.033,218.672 158.672 C 218.313 158.313,207.927 158.203,174.306 158.203 L 130.409 158.203 129.327 159.285 C 127.223 161.388,127.437 165.246,129.778 167.430 C 130.480 168.085,135.801 172.031,141.602 176.199 C 157.491 187.615,163.424 192.764,168.804 199.805 C 200.115 240.781,181.982 308.763,137.317 317.854 C 133.516 318.627,20.984 319.135,19.018 318.387 L 17.969 317.988 17.969 283.682 C 17.969 257.520,18.080 249.264,18.437 248.906 C 18.797 248.547,29.651 248.438,64.916 248.438 L 110.925 248.438 112.201 247.298 C 113.411 246.216,113.477 246.018,113.477 243.423 C 113.477 239.859,113.991 240.359,100.000 230.331 C 75.689 212.908,67.294 203.134,61.365 185.352 C 47.108 142.588,70.075 93.024,106.331 88.308 C 107.683 88.133,145.879 88.011,191.211 88.037 L 273.633 88.086 273.828 167.707 " stroke="none" fill="#b4ebc7" fill-rule="evenodd"></path><path id="path1" d="M106.331 88.308 C 70.075 93.024,47.108 142.588,61.365 185.352 C 67.294 203.134,75.689 212.908,100.000 230.331 C 113.991 240.359,113.477 239.859,113.477 243.423 C 113.477 246.018,113.411 246.216,112.201 247.298 L 110.925 248.438 64.916 248.438 C 29.651 248.438,18.797 248.547,18.437 248.906 C 18.080 249.264,17.969 257.520,17.969 283.682 L 17.969 317.988 19.018 318.387 C 20.984 319.135,133.516 318.627,137.317 317.854 C 181.982 308.763,200.115 240.781,168.804 199.805 C 163.424 192.764,157.491 187.615,141.602 176.199 C 135.801 172.031,130.480 168.085,129.778 167.430 C 127.437 165.246,127.223 161.388,129.327 159.285 L 130.409 158.203 174.306 158.203 C 207.927 158.203,218.313 158.313,218.672 158.672 C 219.033 159.033,219.142 177.251,219.147 238.262 C 219.150 287.445,219.293 317.605,219.523 317.969 C 219.940 318.628,384.759 318.887,385.417 318.229 C 385.897 317.749,386.039 250.709,385.563 249.456 L 385.176 248.438 330.358 248.438 C 283.632 248.438,275.428 248.356,274.782 247.883 C 274.037 247.338,274.020 245.956,273.828 167.707 L 273.633 88.086 191.211 88.037 C 145.879 88.011,107.683 88.133,106.331 88.308 M273.438 168.098 C 273.629 246.346,273.646 247.729,274.391 248.274 C 275.037 248.746,283.238 248.828,329.944 248.828 C 383.718 248.828,384.746 248.842,385.143 249.584 C 385.887 250.975,385.684 316.994,384.933 317.746 C 384.179 318.499,221.690 318.706,220.287 317.955 C 219.544 317.557,219.531 316.253,219.531 238.295 C 219.531 166.766,219.471 158.980,218.917 158.426 C 218.367 157.876,213.793 157.813,174.416 157.813 L 130.529 157.813 129.334 158.818 C 127.333 160.501,126.922 163.655,128.342 166.436 C 128.633 167.005,133.067 170.474,138.549 174.420 C 161.438 190.896,167.489 196.720,174.402 208.929 C 188.783 234.328,186.945 270.908,170.092 294.698 C 159.749 309.300,147.294 316.843,131.669 317.970 C 123.271 318.576,19.851 318.485,19.017 317.871 C 18.399 317.417,18.360 314.990,18.454 283.203 L 18.555 249.023 64.844 248.828 C 100.157 248.679,111.329 248.520,111.961 248.158 C 113.101 247.504,114.063 245.320,114.063 243.385 C 114.062 239.998,113.897 239.838,100.532 230.238 C 82.981 217.632,78.465 213.632,72.030 204.994 C 41.088 163.463,62.336 93.931,107.617 88.537 C 108.262 88.460,145.791 88.415,191.016 88.437 L 273.242 88.477 273.438 168.098 " stroke="none" fill="#60d2a8" fill-rule="evenodd"></path><path id="path2" d="M107.617 88.537 C 62.336 93.931,41.088 163.463,72.030 204.994 C 78.465 213.632,82.981 217.632,100.532 230.238 C 113.897 239.838,114.062 239.998,114.063 243.385 C 114.063 245.320,113.101 247.504,111.961 248.158 C 111.329 248.520,100.157 248.679,64.844 248.828 L 18.555 249.023 18.454 283.203 C 18.360 314.990,18.399 317.417,19.017 317.871 C 19.851 318.485,123.271 318.576,131.669 317.970 C 178.632 314.583,201.327 243.865,169.199 201.023 C 163.012 192.773,157.993 188.416,138.549 174.420 C 133.067 170.474,128.633 167.005,128.342 166.436 C 126.922 163.655,127.333 160.501,129.334 158.818 L 130.529 157.813 174.416 157.813 C 213.793 157.813,218.367 157.876,218.917 158.426 C 219.471 158.980,219.531 166.766,219.531 238.295 C 219.531 316.253,219.544 317.557,220.287 317.955 C 221.690 318.706,384.179 318.499,384.933 317.746 C 385.684 316.994,385.887 250.975,385.143 249.584 C 384.746 248.842,383.718 248.828,329.944 248.828 C 283.238 248.828,275.037 248.746,274.391 248.274 C 273.646 247.729,273.629 246.346,273.438 168.098 L 273.242 88.477 191.016 88.437 C 145.791 88.415,108.262 88.460,107.617 88.537 " stroke="none" fill="#3ecb9c" fill-rule="evenodd"></path></g></svg>